<svg xmlns="http://www.w3.org/2000/svg" width="217" height="66" viewBox="0 0 217 66">
    <g fill="none" fill-rule="evenodd">
        <path fill="#23275E" d="M37.18 12.366a2.183 2.183 0 0 0-3.088.006l-6.5 6.527 6.528 6.498a2.184 2.184 0 1 0 3.082-3.096l-3.43-3.415 3.415-3.431a2.184 2.184 0 0 0-.007-3.09M12.446 37.21a2.185 2.185 0 0 1-.007-3.09l6.498-6.526 6.526 6.498a2.183 2.183 0 1 1-3.08 3.096l-3.432-3.416-3.416 3.43a2.186 2.186 0 0 1-3.09.008M.666 25.48a2.184 2.184 0 0 0 3.088-.007l6.498-6.527-6.526-6.498a2.184 2.184 0 1 0-3.082 3.096l3.43 3.416-3.416 3.43a2.184 2.184 0 0 0 .008 3.09M25.399.635c.854.852.858 2.234.007 3.09l-6.499 6.525-6.526-6.497A2.185 2.185 0 0 1 15.464.658l3.43 3.416L22.31.643A2.185 2.185 0 0 1 25.4.636"/>
        <path fill="#7D8286" d="M34.445 7.253a2.185 2.185 0 0 0-3.089.006L19.751 18.916l11.656 11.607a2.185 2.185 0 0 0 3.083-3.095l-8.561-8.525 8.524-8.561a2.184 2.184 0 0 0-.008-3.09M7.32 34.498a2.186 2.186 0 0 1-.006-3.09L18.92 19.752l11.659 11.606c.853.851.857 2.234.006 3.09a2.186 2.186 0 0 1-3.089.006l-8.56-8.525-8.525 8.562a2.186 2.186 0 0 1-3.09.007M3.4 30.592c.854.852 2.237.85 3.088-.006L18.095 18.93 6.437 7.323a2.184 2.184 0 1 0-3.082 3.096l8.56 8.523-8.523 8.563a2.181 2.181 0 0 0 .008 3.087M30.524 3.35c.855.85.858 2.233.007 3.088L18.924 18.094 7.268 6.488a2.184 2.184 0 0 1 3.08-3.095l8.564 8.524 8.523-8.563a2.185 2.185 0 0 1 3.09-.005"/>
        <path fill="#23275E" d="M68.97 26.122v-.24c-.963-.4-1.205-.933-1.636-2.828l-3.64-15.592h-.293l-6.3 14.2L50.632 7.49h-.266L46.953 23.02c-.396 1.817-.555 2.539-1.622 2.915v.24c.828-.055 1.923-.058 3.1-.06.533-.001 1.12.023 1.627.05v-.24c-.561-.16-.908-.426-.91-.88 0-.348.08-.775.131-1.07l1.903-9.832 5.85 12.567h.267l5.5-12.593 2.08 10.226c.028.186.082.533.083.667 0 .48-.346.749-.88.884v.24c.748-.029 1.55-.057 2.35-.059.748-.002 1.63-.003 2.538.048zm11.96-3.499l-.24-.026c-.348.99-1.174 1.445-3.203 1.45l-1.657.003c-1.656.003-2.164.005-2.167-1.624l-.011-4.729 3.206-.007c1.923-.004 2.779.395 3.021 1.33h.214a68.727 68.727 0 0 1-.059-2.325c-.001-.801.024-1.683.049-2.457h-.214c-.345.99-1.093 1.392-3.015 1.396l-3.206.008-.011-5.29 3.072-.007c2.11-.004 3.044-.006 3.634 1.248h.268l-.007-3.313-10.98.024v.241c1.125.238 1.34 1.2 1.345 3.683l.022 9.963c.006 2.457-.179 3.446-1.328 3.69v.24l10.847-.024.42-3.474zm17.59-5.434c-.012-5.423-3.386-8.94-9.61-8.927l-6.25.013v.268c1.097.237 1.339 1.226 1.344 3.683l.022 9.963c.006 2.565-.26 3.393-1.327 3.662v.24l6.411-.013c5.93-.013 9.422-3.387 9.41-8.889zm-2.752.033c.01 4.487-2.683 6.79-6.262 6.798-2.778.005-2.807-.608-2.81-2.077l-.024-11.379c.775-.108 1.601-.244 2.376-.245 4.06-.01 6.71 2.602 6.72 6.903zm8.54 8.822v-.24c-1.043-.265-1.365-.986-1.37-3.656l-.023-9.99c-.006-2.537.26-3.446 1.355-3.69l-.001-.24c-.907.029-1.843.058-2.67.06A96.445 96.445 0 0 1 98.9 8.24l.001.24c1.095.239 1.338 1.174 1.343 3.683l.022 9.99c.006 2.618-.26 3.393-1.327 3.663v.24a82.604 82.604 0 0 1 2.75-.059c.883-.002 1.818.022 2.62.047zm-1.14-20.565a1.579 1.579 0 0 0-1.58-1.572 1.562 1.562 0 0 0-1.572 1.58 1.579 1.579 0 0 0 1.58 1.572 1.579 1.579 0 0 0 1.572-1.58zm15.189 7.74c-.006-2.697-1.612-4.43-4.391-4.852-.856-.132-1.71-.156-2.458-.155l-5.904.013.001.268c1.097.237 1.339 1.225 1.345 3.682l.02 9.964c.007 2.59-.258 3.393-1.327 3.663l.001.24a81.599 81.599 0 0 1 2.59-.033c.669-.002 1.63.024 2.752.021l-.001-.24c-1.04-.131-1.337-1.013-1.343-3.657l-.025-11.7c.48-.108 1.068-.162 1.895-.164 2.644-.006 3.956 1.086 3.96 2.983.005 2.164-1.782 3.21-3.493 3.213a4.71 4.71 0 0 1-1.014-.104l-.214.026.673 2.11c.267.026.694.105 1.069.104 3.15-.007 5.871-2.016 5.864-5.383zm18.92 3.859c-.013-5.477-3.574-9.342-9.236-9.33-5.69.013-9.342 3.842-9.329 9.37.012 5.181 3.52 9.341 9.397 9.328 5.876-.012 9.179-4.133 9.168-9.368zm-2.751-.021c.01 4.54-2.843 7.244-6.449 7.252-3.953.01-6.604-2.682-6.614-7.197-.009-4.006 2.416-7.217 6.555-7.226 4.06-.01 6.498 2.95 6.508 7.17zm13.527 5.5l-.215-.054c-.531 1.203-1.305 1.391-2.774 1.395l-1.443.003c-1.977.004-1.923-.183-1.93-3.441l-.019-8.387c-.005-2.485.233-3.447 1.275-3.689l-.001-.242c-.935.03-1.87.059-2.618.06a100.14 100.14 0 0 1-2.67-.048v.241c1.096.239 1.338 1.226 1.344 3.684l.021 9.99c.006 2.403-.18 3.445-1.327 3.688l.001.214 9.962-.022.394-3.392z"/>
        <path fill="#7D8286" d="M61.564 33.058l-.001-.24c-.934.028-1.843.057-2.618.059-.827.002-1.763-.024-2.724-.047v.24c1.043.238 1.339 1.118 1.344 3.682l.016 6.893c.002 1.388-.048 2.564-.608 3.5-.664 1.123-1.972 1.82-3.548 1.825-1.924.004-3.367-.955-3.959-2.53-.268-.721-.324-1.789-.326-3.044l-.015-6.625c-.006-2.484.233-3.446 1.327-3.688v-.24c-.963.027-1.87.057-2.644.058-.856.002-1.765-.023-2.699-.047v.24c1.097.238 1.339 1.172 1.345 3.684l.016 7.344c.002 1.363.031 2.565.783 3.872 1.126 1.974 3.399 3.118 6.123 3.112 3.072-.007 5.26-1.24 6.243-3.406.612-1.364.636-2.727.632-4.142l-.014-6.812c-.006-2.537.258-3.445 1.327-3.688zm18.75-.041v-.24c-.882 0-1.737.057-2.457.058-.748.002-1.71-.05-2.725-.047v.24c1.23.05 1.525 1.012 1.531 3.683l.019 8.628-12.21-13.516h-.24l.032 14.905c.006 2.591-.258 3.393-1.327 3.662v.24a83.839 83.839 0 0 1 2.485-.058c.828-.002 1.79.023 2.698.047l-.001-.24c-1.122-.104-1.47-.958-1.477-3.656l-.02-8.734 12.21 13.435h.241l-.033-14.718c-.005-2.325.127-3.447 1.274-3.69zm19.019-.042v-.24c-.936.056-1.977.057-2.992.06-.589 0-1.257-.025-1.843-.05v.241c.48.079.695.345.696.72 0 .587-.158.934-.318 1.31l-4.703 11.148-4.19-10.007c-.375-.907-.67-1.708-.672-2.136 0-.588.292-.882.8-1.016v-.242c-2.272.059-4.034.063-5.104.012l.001.24c.748.213 1.017.64 1.715 2.16L89.997 51.4l.401-.002 6.778-15.4c.797-1.817 1.036-2.593 2.157-3.023zm5.23 10.032l-5.983.013.005 1.95 5.983-.013-.005-1.95zm7.415 7.516v-.24c-1.042-.265-1.365-.986-1.37-3.656l-.022-9.99c-.006-2.538.26-3.447 1.353-3.69v-.24c-.908.029-1.843.057-2.67.059-.83.002-1.763-.023-2.7-.047l.002.24c1.095.239 1.338 1.173 1.343 3.683l.023 9.99c.006 2.618-.26 3.394-1.328 3.662v.24c.829-.027 1.763-.056 2.751-.059.882-.002 1.817.023 2.618.048zm-1.14-20.565a1.579 1.579 0 0 0-1.58-1.573 1.561 1.561 0 0 0-1.571 1.58 1.578 1.578 0 0 0 1.579 1.572 1.578 1.578 0 0 0 1.572-1.58zm12.749 15.731c-.014-6.117-7.491-5.352-7.499-8.824-.002-1.63 1.544-2.462 2.88-2.464 1.496-.004 2.86.502 3.69 1.594h.268l-.008-3.312-.268.001a.764.764 0 0 1-.507.16c-.56.002-1.763-.583-3.446-.579-2.965.006-5.231 1.988-5.225 4.819.004 1.656.968 3.23 2.198 3.922 4.039 2.235 5.162 2.928 5.166 4.584.005 2.056-1.622 3.235-3.412 3.239-1.363.003-3.02-.608-3.957-1.834h-.24l.246 3.205c1.283.477 2.62.768 3.955.765 3.767-.008 6.166-2.096 6.159-5.276zm13.442-9.725l-.276-3.311-11.7.025-.258 3.313.267-.001c.45-.962 1.172-1.258 2.882-1.26l1.575-.004.026 11.859c.006 2.564-.233 3.393-1.327 3.662v.24c.855-.029 1.79-.058 2.672-.06.88-.002 1.842.025 2.778.048l-.001-.24c-1.097-.265-1.444-.933-1.45-3.656l-.027-11.86 1.683-.003c1.71-.004 2.432.288 2.887 1.248h.269zM153.86 50.43v-.24c-.695-.239-1.177-.77-1.58-1.652l-7.543-16.758-.374.001-7.175 16.336c-.559 1.284-.85 1.978-1.732 2.114v.24c.721-.027 1.442-.056 2.137-.058.828-.001 1.735.023 2.644.047v-.24c-.481-.078-.695-.398-.696-.8-.001-.346.132-.828.29-1.175l1.17-2.755 7.078-.014 1.102 2.748c.107.267.242.668.243.962 0 .614-.239.881-.774 1.016l.001.24c.934-.028 1.977-.057 2.992-.059a61.19 61.19 0 0 1 2.217.047zm-6.534-7.01l-5.555.013 2.817-6.792 2.738 6.779zm24.552-10.605v-.24c-.882.002-1.737.057-2.458.059-.748.002-1.71-.05-2.725-.047v.24c1.23.05 1.526 1.012 1.532 3.682l.019 8.629-12.211-13.516h-.24l.033 14.905c.005 2.591-.26 3.393-1.327 3.662v.24a83.798 83.798 0 0 1 2.483-.059c.83-.001 1.79.023 2.7.049l-.001-.242c-1.122-.104-1.472-.957-1.478-3.655l-.02-8.735 12.21 13.436h.241l-.033-14.719c-.005-2.323.127-3.446 1.275-3.689zm14.343 12.31c-.005-2.217-1.263-3.79-3.748-4.613 1.813-.646 2.747-1.769 2.742-3.666-.004-1.923-1.13-3.39-3.026-3.972-.883-.266-2.032-.29-3.42-.287l-5.557.011v.215c1.097.237 1.34 1.226 1.345 3.682l.021 9.991c.006 2.563-.259 3.393-1.327 3.662v.24l6.465-.014c4.327-.01 6.513-1.723 6.505-5.249zm-3.757-8.086c.006 1.95-1.756 2.863-3.812 2.867-.455 0-.989.002-1.417-.024l-.012-5.235c.534-.055 1.15-.162 1.496-.163 2.378-.005 3.742.712 3.745 2.555zm1.007 8.092c.005 2.217-1.462 3.181-4.401 3.188-1.95.004-1.818-.984-1.822-2.828l-.008-3.552c.48-.054 1.041-.136 1.682-.138 3.046-.007 4.543 1.14 4.549 3.33zm20.086-12.385v-.24c-.935.028-1.843.057-2.618.059-.829.001-1.763-.023-2.725-.048v.24c1.042.24 1.339 1.12 1.344 3.684l.016 6.892c.002 1.388-.049 2.564-.607 3.5-.665 1.123-1.972 1.821-3.55 1.825-1.921.003-3.366-.955-3.958-2.53-.268-.72-.324-1.788-.327-3.044l-.015-6.625c-.005-2.484.234-3.446 1.328-3.689v-.24c-.961.029-1.87.057-2.644.06-.855 0-1.764-.025-2.7-.048l.001.24c1.097.238 1.339 1.173 1.345 3.683l.016 7.346c.003 1.361.032 2.564.782 3.871 1.127 1.974 3.4 3.118 6.124 3.112 3.073-.007 5.26-1.24 6.243-3.406.611-1.364.636-2.726.633-4.142l-.015-6.811c-.006-2.538.259-3.446 1.327-3.69zm11.73 14.158l-.213-.053c-.533 1.203-1.307 1.392-2.775 1.395l-1.444.003c-1.975.005-1.923-.183-1.93-3.44l-.018-8.388c-.006-2.484.232-3.447 1.274-3.69v-.24c-.936.029-1.87.058-2.618.06-.775.001-1.71-.024-2.671-.048v.24c1.096.238 1.338 1.225 1.343 3.683l.022 9.99c.006 2.404-.179 3.446-1.326 3.689v.213l9.963-.021.393-3.393z"/>
        <path fill="#23275E" d="M48.479 65.006V64.9c-.462-.117-.605-.436-.608-1.621l-.009-4.431c-.003-1.126.114-1.528.6-1.636v-.106c-.403.014-.817.026-1.184.027-.368 0-.78-.01-1.195-.02v.105c.485.104.593.519.595 1.632l.01 4.432c.003 1.161-.115 1.505-.589 1.624v.106c.368-.014.781-.025 1.22-.026.39-.001.804.009 1.16.02zm-.506-9.119a.699.699 0 1 0-1.398.003.699.699 0 0 0 1.398-.003zm5.892 6.977c-.007-2.713-3.323-2.375-3.326-3.916-.001-.722.686-1.091 1.278-1.092.663-.002 1.267.222 1.636.707h.118l-.003-1.469h-.118a.34.34 0 0 1-.225.072c-.249 0-.781-.258-1.528-.256-1.317.003-2.32.88-2.318 2.136.002.735.43 1.432.975 1.74 1.791.991 2.29 1.298 2.292 2.032.002.913-.72 1.436-1.514 1.437-.605.002-1.34-.269-1.755-.813h-.105l.109 1.421c.568.21 1.16.34 1.752.339 1.671-.003 2.734-.928 2.732-2.338zm5.96-4.315l-.121-1.467-5.187.01-.115 1.469h.118c.2-.427.52-.558 1.278-.56l.7-.001.01 5.26c.003 1.138-.102 1.506-.588 1.624v.106c.379-.013.793-.025 1.184-.026.39-.001.816.01 1.23.02v-.105c-.485-.117-.64-.413-.642-1.621l-.012-5.26.746-.002c.758-.002 1.078.127 1.281.553h.118zm7.466 6.416v-.106c-.308-.105-.522-.341-.7-.733l-3.345-7.43h-.166l-3.183 7.243c-.247.57-.377.877-.768.938v.106c.32-.013.64-.025.948-.026.368 0 .77.01 1.174.021l-.001-.106c-.213-.034-.308-.176-.308-.353-.001-.155.057-.368.128-.522l.518-1.223 3.14-.007.489 1.22c.047.119.106.296.107.427 0 .273-.106.39-.343.45v.106a46.77 46.77 0 0 1 1.327-.027c.32 0 .675.01.983.022zm-2.896-3.108l-2.465.006 1.25-3.011 1.215 3.005zm10.887-4.703v-.106c-.391 0-.77.025-1.09.026-.331 0-.758-.022-1.208-.021v.106c.546.022.678.447.68 1.632l.008 3.826-5.415-5.992h-.106l.014 6.608c.003 1.15-.115 1.506-.588 1.625v.107c.38-.013.769-.026 1.1-.027.368 0 .794.01 1.196.02v-.106c-.498-.046-.652-.425-.655-1.621l-.008-3.874 5.414 5.959h.107l-.014-6.528c-.002-1.03.055-1.528.565-1.634zm6.599 5.458c-.003-.984-.561-1.682-1.663-2.046.804-.285 1.218-.788 1.215-1.633-.002-.857-.5-1.508-1.341-1.767-.392-.116-.9-.127-1.518-.126l-2.462.006v.094c.485.105.593.543.595 1.637l.01 4.439c.003 1.137-.115 1.503-.588 1.623v.107l2.866-.007c1.919-.004 2.89-.763 2.886-2.327zm-1.666-3.593c.001.87-.78 1.277-1.693 1.28-.2 0-.438 0-.627-.011l-.006-2.336c.237-.023.51-.072.664-.072 1.055-.003 1.66.318 1.662 1.14zm.446 3.596c.002.983-.649 1.412-1.952 1.415-.865.001-.808-.438-.809-1.255l-.003-1.577c.213-.023.462-.06.746-.06 1.35-.003 2.016.504 2.018 1.477zm9.38-5.493v-.106c-.414.012-.816.025-1.16.025-.367.001-.781-.01-1.208-.021v.106c.463.106.594.496.596 1.633l.007 3.056c.002.617-.021 1.138-.27 1.554-.294.498-.873.808-1.574.809-.852.002-1.493-.423-1.756-1.122-.118-.32-.143-.793-.144-1.35l-.006-2.939c-.003-1.101.103-1.529.588-1.635v-.106c-.427.013-.83.026-1.173.027-.378 0-.782-.011-1.195-.022v.106c.485.105.593.518.595 1.633l.008 3.258c0 .604.014 1.138.347 1.718.499.875 1.506 1.381 2.715 1.378 1.362-.002 2.333-.549 2.769-1.51.271-.604.281-1.208.28-1.836l-.007-3.022c-.002-1.125.116-1.528.589-1.634zm5.44 6.279l-.095-.025c-.237.534-.58.618-1.232.62l-.639.001c-.876.002-.853-.08-.856-1.527l-.008-3.721c-.003-1.101.103-1.528.565-1.635v-.106c-.415.013-.829.026-1.16.026-.343.001-.758-.01-1.184-.02v.105c.487.105.594.542.597 1.632l.008 4.433c.003 1.065-.079 1.527-.588 1.634v.096l4.418-.01.174-1.503zm12.668 1.475l-.001-.107c-.427-.177-.534-.415-.725-1.255l-1.615-6.913h-.13l-2.794 6.296-2.868-6.283h-.119L98.384 63.5c-.176.806-.246 1.126-.72 1.293v.107c.368-.025.854-.026 1.374-.028.237 0 .498.011.723.022v-.106c-.249-.07-.403-.188-.404-.39 0-.153.035-.344.058-.474l.843-4.361 2.596 5.573h.118l2.44-5.583.922 4.533c.012.083.036.237.036.297.001.213-.153.331-.39.391v.107c.333-.013.688-.025 1.043-.026.331-.001.722-.002 1.126.022zm5.302-1.551l-.107-.012c-.152.44-.52.641-1.42.644l-.734.001c-.735.002-.96.002-.961-.721l-.005-2.098 1.421-.002c.853-.003 1.233.174 1.34.588h.096a27.884 27.884 0 0 1-.027-1.03c0-.355.01-.746.022-1.09h-.096c-.152.44-.484.619-1.337.621l-1.421.003-.005-2.348 1.362-.003c.936-.002 1.35-.003 1.613.553h.117l-.002-1.467-4.867.011v.107c.497.105.593.53.596 1.632l.01 4.419c.002 1.09-.08 1.527-.59 1.635l.002.107 4.807-.011.186-1.54zm7.801-2.411c-.005-2.406-1.5-3.964-4.26-3.958l-2.771.006v.119c.486.104.593.541.595 1.632l.01 4.42c.003 1.136-.115 1.503-.588 1.622v.106l2.842-.006c2.631-.006 4.178-1.499 4.172-3.941zm-1.218.015c.004 1.99-1.19 3.012-2.778 3.016-1.233.002-1.245-.27-1.246-.922l-.011-5.048c.342-.048.71-.108 1.054-.109 1.8-.003 2.977 1.155 2.98 3.063zm4.496 3.91v-.105c-.462-.117-.605-.437-.607-1.622l-.01-4.432c-.003-1.125.115-1.528.6-1.635v-.105c-.402.011-.817.025-1.183.026-.367 0-.781-.01-1.196-.021v.105c.486.105.593.52.596 1.633l.01 4.432c.002 1.162-.115 1.505-.59 1.624v.105c.368-.012.783-.025 1.22-.026.391-.002.805.01 1.16.021zm-.506-9.12a.698.698 0 0 0-.699-.696.69.69 0 0 0-.696.699.7.7 0 0 0 .699.697.7.7 0 0 0 .696-.7zm6.973 3.432c-.001-1.197-.713-1.964-1.946-2.15a7.094 7.094 0 0 0-1.09-.069l-2.617.006v.118c.486.105.594.542.596 1.633l.01 4.418c.003 1.15-.115 1.506-.589 1.625v.106c.367-.013.77-.014 1.15-.015.295 0 .72.01 1.218.01v-.106c-.462-.059-.593-.449-.596-1.622l-.012-5.19c.213-.048.474-.072.843-.073 1.172-.002 1.755.483 1.757 1.325.002.958-.792 1.423-1.55 1.425-.13 0-.297-.01-.452-.046l-.094.012.3.933c.117.011.307.047.473.046 1.399-.003 2.603-.892 2.6-2.386zm8.866 1.71c-.005-2.429-1.584-4.141-4.096-4.135-2.523.005-4.14 1.701-4.136 4.153.005 2.3 1.56 4.143 4.167 4.137 2.606-.006 4.07-1.832 4.065-4.154zm-1.219-.009c.004 2.015-1.261 3.215-2.86 3.218-1.755.004-2.93-1.191-2.934-3.193-.005-1.777 1.07-3.201 2.907-3.205 1.8-.005 2.884 1.308 2.887 3.18zm6.708 2.439l-.094-.024c-.236.533-.58.618-1.23.619l-.64.001c-.877.002-.854-.08-.857-1.527l-.007-3.72c-.003-1.102.103-1.529.565-1.635v-.106c-.415.013-.83.025-1.162.025-.342.001-.757-.01-1.184-.02v.106c.486.105.594.542.596 1.632l.01 4.432c.003 1.066-.08 1.527-.588 1.634v.096l4.417-.01.174-1.503zm9.985-6.313v-.106c-.415.013-.817.025-1.16.026-.368.001-.782-.01-1.208-.021v.106c.462.105.593.496.595 1.632l.007 3.058c.002.615-.021 1.136-.268 1.553-.296.498-.875.808-1.576.81-.852 0-1.493-.424-1.755-1.124-.119-.32-.144-.793-.145-1.35l-.006-2.939c-.003-1.101.103-1.529.588-1.635v-.106c-.426.014-.83.026-1.173.027-.378.001-.78-.01-1.195-.022v.106c.485.105.593.52.595 1.633l.008 3.26c0 .603.014 1.136.347 1.717.5.874 1.506 1.381 2.716 1.378 1.362-.003 2.333-.55 2.768-1.508.27-.606.282-1.21.28-1.838l-.006-3.023c-.003-1.125.115-1.528.588-1.634zm-2.135-1.311a.566.566 0 0 0-.581-.578c-.33 0-.58.249-.579.581.001.33.262.591.581.59.331 0 .58-.262.58-.593zm-1.883.004a.572.572 0 0 0-.582-.578.565.565 0 0 0-.578.582c0 .33.25.59.58.59a.585.585 0 0 0 .58-.594zm12.571 1.287v-.106c-.392.001-.77.027-1.09.028-.33 0-.757-.023-1.207-.022v.105c.545.023.676.448.678 1.633l.009 3.827-5.415-5.993h-.106l.013 6.609c.003 1.149-.114 1.504-.588 1.624v.107c.38-.013.77-.026 1.1-.027.368-.001.795.01 1.197.022v-.107c-.497-.046-.654-.425-.655-1.621l-.009-3.874 5.416 5.959h.105l-.013-6.528c-.003-1.03.055-1.528.565-1.636zm3.226 7.787v-.105c-.462-.116-.605-.436-.607-1.622l-.01-4.43c-.002-1.126.115-1.53.6-1.637v-.105c-.402.012-.816.026-1.183.027-.368 0-.781-.011-1.196-.022v.106c.486.104.593.52.596 1.633l.01 4.43c.002 1.163-.115 1.507-.589 1.625v.105c.367-.011.782-.025 1.22-.026.39 0 .804.01 1.16.021zm-.506-9.12a.698.698 0 0 0-.699-.695.691.691 0 0 0-.696.699.699.699 0 0 0 1.395-.003zm8.925 1.308v-.106c-.415.025-.877.025-1.327.027-.26 0-.557-.01-.817-.022v.106c.213.035.308.153.308.318 0 .26-.07.415-.14.58l-2.087 4.945-1.857-4.438c-.167-.402-.298-.758-.298-.946 0-.262.129-.391.354-.45v-.106c-1.007.025-1.789.027-2.263.004v.106c.332.094.451.282.76.957l3.227 7.195h.178l3.005-6.83c.353-.806.46-1.15.957-1.34zm5.32 6.244l-.107-.012c-.152.439-.52.641-1.42.644l-.735.001c-.734.001-.959.002-.96-.721l-.005-2.098 1.422-.003c.852-.002 1.233.175 1.34.59l.094-.001c-.013-.331-.025-.699-.025-1.03-.001-.354.009-.745.02-1.09h-.094c-.153.44-.485.618-1.337.62l-1.422.004-.005-2.348 1.362-.003c.936-.002 1.35-.003 1.613.554h.117l-.003-1.468-4.867.011v.107c.498.104.595.53.597 1.632l.01 4.419c.001 1.09-.08 1.527-.59 1.635v.107l4.81-.011.185-1.54zm7.454 1.546v-.106c-.332-.081-.486-.283-.819-.767l-1.888-2.745c1.148-.276 1.75-1.047 1.747-2.149-.003-1.303-.928-2.153-2.823-2.148l-2.901.006v.106c.486.105.594.543.596 1.632l.01 4.432c.002 1.138-.116 1.506-.59 1.623v.107c.391-.012.806-.025 1.173-.026.378 0 .804.01 1.195.021v-.107c-.462-.116-.593-.46-.596-1.622l-.012-5.224c.391-.072.665-.072.925-.073 1.245-.002 1.803.588 1.805 1.37.002.819-.601 1.435-1.727 1.438-.155 0-.32-.011-.487-.047l-.06.084 2.273 3.479c.38.58.57.778 1.243.776.096 0 .475-.011.936-.06zm4.948-2.167c-.006-2.712-3.322-2.373-3.326-3.914-.001-.723.685-1.091 1.278-1.093.664-.001 1.268.222 1.636.707h.118l-.003-1.468h-.118a.34.34 0 0 1-.225.072c-.249 0-.782-.258-1.53-.256-1.315.002-2.318.88-2.315 2.135.002.736.429 1.434.973 1.74 1.792.992 2.291 1.299 2.292 2.033.003.913-.719 1.435-1.514 1.438-.604 0-1.338-.27-1.754-.814h-.106l.11 1.42c.568.212 1.16.34 1.752.34 1.672-.004 2.734-.93 2.732-2.34zm3.168 2.125l-.001-.106c-.462-.116-.605-.435-.608-1.62l-.01-4.432c-.002-1.126.115-1.53.6-1.636v-.106c-.402.013-.817.027-1.183.027-.367 0-.78-.01-1.196-.022v.106c.486.105.594.519.597 1.633l.01 4.432c.001 1.161-.116 1.505-.59 1.623v.106c.368-.013.781-.024 1.22-.026.39 0 .804.01 1.16.021zm-.506-9.119a.7.7 0 0 0-1.397.003.7.7 0 0 0 1.397-.003zm6.508 2.674l-.12-1.467-5.188.01-.116 1.469h.12c.2-.428.52-.559 1.277-.56l.698-.001.012 5.26c.002 1.138-.103 1.506-.588 1.623v.106c.38-.012.794-.025 1.185-.025.39-.001.816.01 1.231.02v-.106c-.487-.116-.641-.412-.644-1.621l-.012-5.26.747-.002c.758-.002 1.078.127 1.28.554h.118zm5.603 4.88l-.106-.011c-.153.439-.52.642-1.42.644l-.735.001c-.735.002-.96.003-.962-.721l-.004-2.097 1.422-.004c.853-.001 1.232.176 1.34.59h.094a29.921 29.921 0 0 1-.025-1.03c-.001-.355.01-.746.02-1.09h-.094c-.153.44-.484.618-1.338.62l-1.421.002-.005-2.347 1.362-.002c.936-.003 1.35-.004 1.613.552h.118l-.003-1.467-4.868.011v.107c.498.105.594.531.596 1.632l.01 4.418c.001 1.09-.08 1.529-.59 1.636v.107l4.81-.01.186-1.54zm5.341-.604c-.006-2.712-3.322-2.373-3.326-3.914-.002-.723.686-1.091 1.279-1.092.662-.002 1.267.221 1.635.706h.118l-.003-1.468h-.118a.334.334 0 0 1-.225.071c-.248.001-.782-.257-1.527-.255-1.316.002-2.321.88-2.318 2.135.002.736.43 1.433.975 1.74 1.791.992 2.29 1.298 2.291 2.033.002.913-.72 1.435-1.514 1.437-.604.002-1.338-.269-1.755-.814l-.106.001.11 1.42c.568.211 1.16.34 1.753.34 1.671-.004 2.735-.93 2.731-2.34zm3.167 2.124v-.106c-.463-.115-.605-.434-.609-1.62l-.008-4.432c-.003-1.125.114-1.528.6-1.635v-.106a42.25 42.25 0 0 1-1.184.027c-.366 0-.782-.01-1.196-.022v.106c.486.104.594.52.596 1.632l.01 4.432c.003 1.162-.116 1.506-.589 1.624l.001.106c.367-.013.782-.025 1.219-.026.39 0 .804.01 1.16.02zm-.505-9.119a.7.7 0 0 0-1.397.004.7.7 0 0 0 1.397-.003z"/>
    </g>
</svg>
